<?xml version="1.0" encoding="UTF-8"?>
<svg width="14px" height="14px" viewBox="0 0 14 14" version="1.1" xmlns="http://www.w3.org/2000/svg" xmlns:xlink="http://www.w3.org/1999/xlink">
    <!-- Generator: Sketch 48.2 (47327) - http://www.bohemiancoding.com/sketch -->
    <title>Combined Shape</title>
    <desc>Created with Sketch.</desc>
    <defs></defs>
    <g id="Coin-Tracker-App---Dark---7" stroke="none" stroke-width="1" fill="none" fill-rule="evenodd" transform="translate(-173.000000, -513.000000)">
        <g id="Group-4" transform="translate(157.000000, 501.000000)" fill="#888888" fill-rule="nonzero">
            <g id="Group-5" transform="translate(16.000000, 12.000000)">
                <path d="M13.7265695,5.14570138 C14.0551031,6.31016132 14.0866396,7.48176703 13.8262632,8.65369755 C13.5657265,9.82560487 13.0371411,10.8733891 12.2403468,11.7893245 L13.4354811,13 L10.4552032,12.9534597 L10.4552032,9.99650028 L11.6503374,11.183836 C12.339926,10.3844371 12.7919948,9.46864086 13.0141243,8.43647059 C13.2362309,7.40427711 13.1943884,6.38087666 12.9068957,5.36309074 C12.6198839,4.34730008 12.1047193,3.45138677 11.3515539,2.68544307 C10.1817724,1.49562491 8.60110066,0.869255851 7,0.869255851 L7,0 C7.91167235,0 8.79135016,0.18196209 9.65075944,0.535654818 C10.5075349,0.888164317 11.2749227,1.40491067 11.9415861,2.08011693 C12.8073393,2.95714497 13.3960662,3.97409567 13.7265695,5.14570138 Z M1.08370387,8.63844656 C1.37055708,9.65742951 1.8992042,10.5444984 2.65063441,11.3115231 C3.82553527,12.5105493 5.37941872,13.145265 7,13.145265 L7,14 C6.08272778,14 5.19744493,13.8179823 4.33985573,13.4638888 C3.48503132,13.1109799 2.71943439,12.593614 2.05444403,11.917575 C1.1906626,11.0394722 0.601167131,10.0219526 0.273413227,8.85593396 C-0.0563057377,7.68292356 -0.0858273525,6.50926277 0.174109095,5.33592717 C0.433885596,4.16259157 0.96141309,3.11359754 1.75637168,2.19670336 L0.571508418,1 L3.54489713,1.0311725 L3.54489713,4.00726334 L2.35253922,2.80277847 C1.6645622,3.6031126 1.20601749,4.5277883 0.984239788,5.56138191 C0.76262203,6.59481292 0.797353342,7.62160061 1.08370387,8.63844656 Z" id="Combined-Shape"></path>
            </g>
        </g>
    </g>
</svg>