<svg version="1" xmlns="http://www.w3.org/2000/svg" width="629.333" height="629.333" viewBox="0 0 472.000000 472.000000"><path d="M227 6.7C127.8 10.9 41.7 81.2 18.1 177.3c-4.9 19.7-6.4 32.1-6.4 53.7-.1 22.4 1.5 35.8 6.9 57 15.9 62.4 60 116.3 118.7 145 101.5 49.6 223.1 16.5 286.2-78 17.8-26.7 29.9-58.4 35.1-92 2.4-16 2.5-47.3 0-63-7.6-49.2-27.6-90.1-61-124.8C379.1 56 359.5 41.8 335 29.6 301.8 13.2 264 5.1 227 6.7zm-6 97.9v17.7l6.1-.7c3.4-.3 7.9-.6 10-.6h3.9l.2-16.8.3-16.7h23.6l.2 18.8.2 18.8 6.7 2.3c9 3.2 22.5 10.4 30 16.3 6.4 4.8 18.8 17 18.8 18.3 0 .4-10.3 7.3-23 15.4L275 192l-5.2-4.2c-21.2-17.3-52.7-15.1-72.1 5-21.1 21.9-20.8 54.3.7 75.8 10.3 10.2 24.5 16.4 38.1 16.4 11.1 0 26-5.5 34.2-12.5 2.6-2.2 4.8-3.3 5.5-2.9 5.8 3.4 42.6 27 43.8 28.1 1.2 1.1.6 2.2-5 7.9-12.4 12.6-28.4 22.9-44.1 28.2l-5.4 1.9-.3 18.6-.2 18.7h-11c-6.1 0-11.3-.1-11.7-.3-.5-.1-.9-7.6-1-16.7l-.2-16.5-9.6-.5c-5.3-.3-9.9-.3-10.1-.1-.2.2-.4 8-.4 17.2v16.8l-11.6.3c-6.4.2-11.8.1-12-.1-.2-.2-.4-9.5-.4-20.7v-20.2l-6.5-3c-21.1-9.9-41-29.2-51.4-49.9-21.2-42.2-13-92.3 20.5-126 8.6-8.6 23-18.7 32.1-22.5l5.3-2.2v-20.1c0-11.1.3-20.5.7-20.8.3-.4 5.7-.7 12-.7H221v17.6z"/></svg>