<?xml version="1.0" encoding="UTF-8"?>
<svg width="17px" height="24px" viewBox="0 0 17 24" version="1.1" xmlns="http://www.w3.org/2000/svg" xmlns:xlink="http://www.w3.org/1999/xlink">
    <defs>
        <radialGradient cx="13.4577574%" cy="10.0016276%" fx="13.4577574%" fy="10.0016276%" r="118.629078%" gradientTransform="translate(0.134578,0.100016),scale(1.000000,0.677576),rotate(46.009421),translate(-0.134578,-0.100016)" id="radialGradient-1">
            <stop stop-color="#06BEE1" offset="0%"></stop>
            <stop stop-color="#0066CC" offset="49.2479263%"></stop>
            <stop stop-color="#8C5383" offset="100%"></stop>
        </radialGradient>
    </defs>
    <g id="Coin-Tracker-App---Dark---7" stroke="none" stroke-width="1" fill="none" fill-rule="evenodd" transform="translate(-173.000000, -46.000000)">
        <path d="M185.367999,61.2227154 L189.261822,63.7094568 C188.075561,65.1933595 186.43703,66.2989832 184.555462,66.8168049 L184.555462,70 L182.558221,70 L182.558221,67.1329901 C182.416382,67.139544 182.273698,67.1428571 182.130241,67.1428571 C181.694456,67.1428571 181.265802,67.1122842 180.846301,67.0531633 L180.846301,70 L178.849061,70 L178.849061,66.5346919 C175.427647,65.2148268 173,61.8913088 173,58 C173,54.1086912 175.427647,50.7851732 178.849061,49.4653081 L178.849061,46 L180.846301,46 L180.846301,48.9468367 C181.265802,48.8877158 181.694456,48.8571429 182.130241,48.8571429 C182.273698,48.8571429 182.416382,48.860456 182.558221,48.8670099 L182.558221,46 L184.555462,46 L184.555462,49.1831951 C186.43703,49.7010168 188.075561,50.8066405 189.261822,52.2905432 L185.367999,54.7772846 C184.541117,53.9442776 183.395821,53.4285714 182.130241,53.4285714 C179.608995,53.4285714 177.565121,55.4752697 177.565121,58 C177.565121,60.5247303 179.608995,62.5714286 182.130241,62.5714286 C183.395821,62.5714286 184.541117,62.0557224 185.367999,61.2227154 Z" id="Icon" fill="url(#radialGradient-1)"></path>
    </g>
</svg>